<svg xmlns="http://www.w3.org/2000/svg" width="14" height="16" viewBox="0 0 14 16">
  <path id="Path_3289" data-name="Path 3289" d="M3161.7,2871.088a2.178,2.178,0,0,1,1.651-1.819c.218-.052.445-.067.677-.1-.005-.039-.012-.083-.019-.125a1.489,1.489,0,0,1,.612-1.545,3.207,3.207,0,0,0,1.189-2.425c-.205,0-.387,0-.569,0a.783.783,0,0,1-.773-.706c-.015-.182-.013-.367-.01-.55a.821.821,0,0,1,.9-.867c.457,0,.913-.01,1.37,0a2.451,2.451,0,0,0,.9-.145,4.234,4.234,0,0,0,1.775-1.023.382.382,0,0,0,.1-.229,1,1,0,0,1,1.989-.179q.386,1.794.772,3.588a.8.8,0,0,1-.75.971c-.427.039-.851.087-1.276.136a.279.279,0,0,0-.272.334q.1,1.619.193,3.238c0,.049.015.1.026.178a1.2,1.2,0,0,0,.431-.721,6.34,6.34,0,0,0,.008-.8c1.336,0,2.7,0,4.054,0a.183.183,0,0,1,.133.071,5.706,5.706,0,0,1,.84,1.965,2,2,0,0,1,0,.789,1.067,1.067,0,0,1-1.1.842c-.264,1.016-.784,1.5-1.665,1.563a1.707,1.707,0,0,1-1.028-.248,1.733,1.733,0,0,1-.838-1.328h-.221q-2.134,0-4.267,0a3.74,3.74,0,0,1-.449-.053c-.012.038-.028.1-.052.164a1.64,1.64,0,0,1-.086.2.281.281,0,0,1-.5.057c-.021-.025-.043-.052-.077-.093a1.793,1.793,0,0,1-2.125,1.378,1.75,1.75,0,0,1-1.048-.669,1.666,1.666,0,0,1-.279-1.447C3161.706,2871.385,3161.67,2871.313,3161.7,2871.088Zm11.028,1.913a1.154,1.154,0,0,0,1.234-1.032h-2.352A1.141,1.141,0,0,0,3172.725,2873Zm-5.24-2.91h1.038c-.031-.3-.061-.592-.093-.882q-.111-1.025-.225-2.048c-.05-.457-.1-.913-.143-1.371a.776.776,0,0,1,.542-.848c.424-.159.853-.31,1.279-.466.185-.068.245-.158.205-.347-.054-.263-.122-.524-.192-.82a4.879,4.879,0,0,1-2.41.963Zm-3.85,3.006a1.194,1.194,0,0,0,1.193-1.17.283.283,0,0,0-.158-.27,3.18,3.18,0,0,0-1.873-.387.317.317,0,0,0-.3.228A1.178,1.178,0,0,0,3163.635,2873.1Zm11.42-5.449a.305.305,0,0,1-.272.126c-1.376,0-2.75,0-4.125,0h-.189c0-.359,0-.691,0-1.024,0-.257.094-.348.362-.349h1.558q1.334,0,2.669,0c.259,0,.35.093.341.344A1.554,1.554,0,0,1,3175.055,2867.647Zm-5.4-7.334a1.332,1.332,0,1,1,1.357-1.34A1.344,1.344,0,0,1,3169.656,2860.314Z" transform="translate(-3161.689 -2857.651)" fill="#01b894"/>
</svg>
