<svg xmlns="http://www.w3.org/2000/svg" width="22" height="18.792" viewBox="0 0 22 18.792">
  <path id="Icon_material-directions-bike" data-name="Icon material-directions-bike" d="M14.208,5.917a1.833,1.833,0,1,0-1.833-1.833A1.839,1.839,0,0,0,14.208,5.917ZM4.583,11.875a4.583,4.583,0,1,0,0,9.167,4.583,4.583,0,1,0,0-9.167Zm0,7.792a3.208,3.208,0,1,1,0-6.417,3.208,3.208,0,1,1,0,6.417ZM9.9,10.5l2.2-2.2.733.733a6.422,6.422,0,0,0,4.675,1.925V9.125a4.554,4.554,0,0,1-3.3-1.375L12.467,6.008A2.248,2.248,0,0,0,11,5.458a1.538,1.538,0,0,0-1.283.55L7.15,8.575A1.81,1.81,0,0,0,6.6,9.858a1.538,1.538,0,0,0,.55,1.283l2.933,2.567v4.583h1.833V12.608Zm7.517,1.375A4.583,4.583,0,1,0,22,16.458,4.539,4.539,0,0,0,17.417,11.875Zm0,7.792a3.208,3.208,0,1,1,3.208-3.208A3.248,3.248,0,0,1,17.417,19.667Z" transform="translate(0 -2.25)" fill="#01b894"/>
</svg>
